<svg width="0" height="0" class="hidden">
  <symbol xmlns="http://www.w3.org/2000/svg" viewBox="0 0 30 30" id="icon-apple">
    <path d="M25.565 9.785c-.123.077-3.051 1.702-3.051 5.305.138 4.109 3.695 5.55 3.756 5.55-.061.077-.537 1.963-1.947 3.94-1.119 1.703-2.361 3.42-4.247 3.42-1.794 0-2.438-1.135-4.508-1.135-2.223 0-2.852 1.135-4.554 1.135-1.886 0-3.22-1.809-4.4-3.496-1.533-2.208-2.836-5.673-2.882-9-.031-1.763.307-3.496 1.165-4.968 1.211-2.055 3.373-3.45 5.734-3.496 1.809-.061 3.419 1.242 4.523 1.242 1.058 0 3.036-1.242 5.274-1.242.966.001 3.542.292 5.137 2.745zM15.001 6.688c-.322-1.61.567-3.22 1.395-4.247 1.058-1.242 2.729-2.085 4.17-2.085a6.003 6.003 0 0 1-1.533 4.339c-.935 1.242-2.545 2.177-4.032 1.993z"></path>
  </symbol>
  <symbol xmlns="http://www.w3.org/2000/svg" viewBox="0 0 24 24" id="icon-facebook">
    <path d="M12 0C5.373 0 0 5.373 0 12c0 6.016 4.432 10.984 10.206 11.852V15.18H7.237v-3.154h2.969V9.927c0-3.475 1.693-5 4.581-5 1.383 0 2.115.103 2.461.149v2.753h-1.97c-1.226 0-1.654 1.163-1.654 2.473v1.724h3.593l-.487 3.154h-3.106v8.697C19.481 23.083 24 18.075 24 12c0-6.627-5.373-12-12-12z"></path>
  </symbol>
  <symbol xmlns="http://www.w3.org/2000/svg" viewBox="0 0 24 24" id="icon-twitter">
    <path d="M24 4.3c-.898.4-1.8.7-2.8.802 1-.602 1.8-1.602 2.198-2.704-1 .602-2 1-3.097 1.204C19.3 2.602 18 2 16.6 2a4.907 4.907 0 0 0-4.9 4.898c0 .403 0 .801.102 1.102C7.7 7.8 4.102 5.898 1.7 2.898c-.5.704-.7 1.602-.7 2.5 0 1.704.898 3.204 2.2 4.102-.802-.102-1.598-.3-2.2-.602V9c0 2.398 1.7 4.398 3.898 4.8-.398.098-.796.2-1.296.2-.301 0-.602 0-.903-.102.602 2 2.403 3.403 4.602 3.403-1.7 1.3-3.801 2.097-6.102 2.097-.398 0-.8 0-1.199-.097C2.2 20.699 4.8 21.5 7.5 21.5c9.102 0 14-7.5 14-14v-.602c1-.699 1.8-1.597 2.5-2.597"></path>
  </symbol>
</svg>